<?xml version="1.0" encoding="UTF-8" standalone="yes"?>
<svg xmlns="http://www.w3.org/2000/svg" viewBox="0 0 24 24" width="50" height="50" fill="#000000">
  <path d="M 10 2 L 9 3 L 3 3 L 3 5 L 4.109375 5 L 5.9023438 20.234375 C 6.0195906 21.233954 6.8820006 22 7.8886719 22 L 16.111328 22 C 17.117999 22 17.980409 21.233954 18.097656 20.234375 L 19.890625 5 L 21 5 L 21 3 L 19 3 L 15 3 L 14 2 L 10 2 z M 6.1230469 5 L 7 5 L 17.876953 5 L 16.111328 20 L 7.8886719 20 L 6.1230469 5 z M 9 7 L 9 17 C 9 17.552 9.448 18 10 18 L 11 18 L 11 7 L 9 7 z M 13 7 L 13 18 L 14 18 C 14.552 18 15 17.552 15 17 L 15 7 L 13 7 z"/>
</svg>